<svg version="1.1" xmlns="http://www.w3.org/2000/svg" xmlns:xlink="http://www.w3.org/1999/xlink" width="800" height="800"><defs/><g transform="scale(2,2)"><g id="background-92473517"><rect fill="white" stroke="none" x="0" y="0" width="400" height="400" class="dcg-svg-background"/></g><g id="background-images-92473517"/><g id="graphpaper-92473517"><g id="axis-92473517"><g><g><path fill="none" stroke="rgb(0,0,0)" class="dcg-svg-tickmark" paint-order="fill stroke markers" d="" stroke-opacity="0.9" stroke-miterlimit="2" stroke-width="2" stroke-dasharray=""/></g></g></g></g><g id="expressions-92473517"><g id="sketch-92473517"><title>Expression 1</title><path fill="#000000" stroke="none" paint-order="stroke fill markers" d="" fill-opacity="0.4"/><g><path fill="none" stroke="#000000" class="dcg-svg-curve" paint-order="fill stroke markers" d=" M 199.50000000000003 366.1666666666667 L 199.50000000000003 366.1666666666667 L 199.50000000000003 32.83333333333326" stroke-linecap="round" stroke-linejoin="round" stroke-miterlimit="10" stroke-width="5" stroke-dasharray=""/></g></g><g id="sketch-92473517"><title>Expression 2</title><path fill="#000000" stroke="none" paint-order="stroke fill markers" d="" fill-opacity="0.4"/><g><path fill="none" stroke="#000000" class="dcg-svg-curve" paint-order="fill stroke markers" d=" M 32.83333333333333 199.49999999999997 L 32.83333333333333 199.49999999999997 L 366.16666666666674 199.49999999999997" stroke-linecap="round" stroke-linejoin="round" stroke-miterlimit="10" stroke-width="5" stroke-dasharray=""/></g></g><g id="sketch-92473517"><title>Expression 3</title><path fill="#c74440" stroke="none" paint-order="stroke fill markers" d="" fill-opacity="0.4"/><path fill="#c74440" stroke="none" paint-order="stroke fill markers" d="" fill-opacity="0.4"/><g><path fill="none" stroke="#c74440" class="dcg-svg-curve" paint-order="fill stroke markers" d=" M 7.04991027012475 295.72504610670103 L 7.04991027012475 295.72504610670103 L 7.214843750000016 302.5412585939446 L 7.60546875000003 308.1020842738336 L 8.191406250000016 313.2800863978285 L 8.972656249999972 318.26423017591645 L 9.949218749999972 323.09645537656246 L 11.02343750000003 327.43126002771396 L 12.292968749999986 331.7418821238431 L 13.757812499999988 335.99055746534054 L 15.417968750000032 340.15307283237706 L 17.27343749999997 344.212606967335 L 19.324218750000032 348.1565995572609 L 21.57031249999999 351.9750595218901 L 24.01171874999999 355.6596003963006 L 26.648437500000032 359.20286350468064 L 29.480468749999975 362.59815799496414 L 32.60546875000002 365.93786362808623 L 36.02343750000002 369.18336589186885 L 39.73437499999999 372.3020601241995 L 43.738281250000014 375.2659604211358 L 48.03515624999999 378.05060416110564 L 52.42968749999999 380.53176160869043 L 57.01953125000002 382.77712471190193 L 61.70703124999999 384.74768161883554 L 66.58984375000001 386.49115385329895 L 71.5703125 387.9769880167021 L 76.74609375 389.23733117466315 L 82.1171875 390.2661361379318 L 87.58593750000001 391.045414745185 L 93.25000000000001 391.5889554085079 L 99.10937500000001 391.8890872823716 L 105.16406250000001 391.9378071534857 L 111.4140625 391.7267346922831 L 117.85937500000001 391.24706307783765 L 124.50000000000001 390.4895038032822 L 131.33593750000003 389.4442242776866 L 138.36718750000003 388.1007765770199 L 145.59375 386.44801534335096 L 153.01562500000003 384.4740023615859 L 160.63281250000003 382.1658947190719 L 168.44531250000003 379.50981262126237 L 176.35546875 376.52928657815 L 184.4609375 373.1765284758725 L 192.76171875 369.4336159855183 L 201.16015625000003 365.3303871590528 L 209.65625000000003 360.85629366762686 L 218.25000000000003 355.99876496232844 L 226.94140625 350.74294346128465 L 235.73046875 345.07133388395715 L 244.61718750000003 338.9633409435629 L 253.50390625 332.4682358480824 L 262.39062500000006 325.5708922000556 L 270.98437500000006 318.5003918888751 L 279.28515625000006 311.27654994462426 L 287.29296875000006 303.9176206734542 L 295.0078125 296.44049962450646 L 302.4296875 288.86089023048396 L 309.55859375000006 281.19344166584085 L 316.39453125000006 273.4518627734145 L 322.9375 265.6490155747932 L 329.1875 257.7969907627154 L 335.046875 250.03996531675006 L 340.61328125 242.2705810338829 L 345.88671875 234.5007911507289 L 350.8671875 226.74239271130463 L 355.5546875 219.00715609357218 L 359.85156250000006 211.48337499957844 L 363.85546875 204.03003746094103 L 367.56640625000006 196.66433437112877 L 370.98437500000006 189.40574456639754 L 374.109375 182.2770676104409 L 376.94140625000006 175.30594477177686 L 379.578125 168.25446988359695 L 381.92187500000006 161.38776699352846 L 383.97265625 154.75216626921917 L 385.82812500000006 148.03905672705616 L 387.390625 141.61869387214085 L 388.66015625000006 135.6054924804892 L 389.73437500000006 129.60065745247977 L 390.61328125000006 123.55363920909656 L 391.19921875000006 118.35871907379106 L 391.58984375000006 113.64805236479953 L 391.8828125 107.71516483420709 L 391.95008972987534 103.2749563768258" stroke-linecap="round" stroke-linejoin="round" stroke-miterlimit="10" stroke-width="5" stroke-dasharray=""/></g><g><path fill="none" stroke="#c74440" class="dcg-svg-curve" paint-order="fill stroke markers" d=" M 7.04991027012475 295.7250436231742 L 7.04991027012475 295.7250436231742 L 7.214843750000016 288.74389765605537 L 7.60546875000003 282.7924469761664 L 8.191406250000016 277.02850735217146 L 8.972656249999972 271.26311357408355 L 9.949218749999972 265.45432587343754 L 11.218750000000002 259.13836490582787 L 12.683593750000002 252.87695851964202 L 14.441406250000032 246.28254357782998 L 16.394531250000032 239.74904773203184 L 18.640624999999986 232.9630952398445 L 21.08203124999999 226.23459683801974 L 23.816406250000018 219.30332288350374 L 26.843750000000004 212.20650942596558 L 30.164062500000018 204.97337940814623 L 33.777343749999986 197.6277534225184 L 37.68359374999999 190.18976942639824 L 41.88281250000002 182.677038125195 L 46.37500000000001 175.10543705229048 L 51.16015625000002 167.48967020385834 L 56.23828124999999 159.84367352966242 L 61.60937499999999 152.18091799071865 L 67.27343750000003 144.51464416083627 L 73.23046875000001 136.8580512212331 L 79.57812500000001 129.10820181662024 L 86.21875 121.40645495911576 L 93.15234375000003 113.76590975683547 L 100.37890625 106.20035522550455 L 107.89843750000001 98.72437425198842 L 115.71093750000001 91.35346176632129 L 123.81640625 84.10416114019915 L 132.1171875 77.07463837265067 L 140.7109375 70.1946182835585 L 149.59765625000003 63.48504238195909 L 158.58203125 57.103012262190134 L 167.56640625 51.11059233609228 L 176.45312500000003 45.55619318158938 L 185.24218750000003 40.420260672178415 L 193.93359375 35.68626702210298 L 202.52734375 31.340283557052715 L 211.0234375 27.370659493495054 L 219.32421875 23.807831386888097 L 227.4296875 20.632981628523112 L 235.4375 17.79625115097474 L 243.25 15.322101372841132 L 250.8671875 13.196243088481992 L 258.28906250000006 11.405555783558555 L 265.515625 9.937945399466912 L 272.546875 8.782226296206261 L 279.28515625000006 7.938293805375736 L 285.82812500000006 7.378329761200462 L 292.17578125000006 7.093024846293474 L 298.32812500000006 7.073598663394421 L 304.28515625 7.3117457972861075 L 310.04687500000006 7.7995889992345155 L 315.61328125 8.529638428678652 L 320.984375 9.494756095927983 L 326.2578125 10.713276986295398 L 331.33593750000006 12.16439675895964 L 336.21875 13.842861480801048 L 340.90625 15.743869186439667 L 345.49609375 17.91266619906196 L 349.890625 20.31058809114012 L 354.08984375 22.936437886550436 L 358.19140625 25.864552127355864 L 362.09765625 29.04244030998217 L 365.61328125000006 32.28540596567228 L 368.8359375 35.63744190814623 L 371.765625 39.06245272288555 L 374.50000000000006 42.652845928778106 L 376.94140625000006 46.25264897822302 L 379.1875 49.97309043559454 L 381.23828125000006 53.802257131283284 L 383.09375 57.725339950231046 L 384.75390625000006 61.72306966443057 L 386.21875000000006 65.76911181798135 L 387.58593750000006 70.16485274204524 L 388.75781250000006 74.64051182434207 L 389.73437500000006 79.16496754752018 L 390.51562500000006 83.68083520202879 L 391.10156250000006 88.06564227349526 L 391.58984375000006 93.26210388520047 L 391.8828125 98.90202266579291 L 391.95008972987534 103.27495389329891" stroke-linecap="round" stroke-linejoin="round" stroke-miterlimit="10" stroke-width="5" stroke-dasharray=""/></g></g><g id="sketch-92473517"><title>Expression 4</title><path fill="#388c46" stroke="none" paint-order="stroke fill markers" d="" fill-opacity="0.4"/><path fill="#388c46" stroke="none" class="dcg-svg-region" paint-order="stroke fill markers" d=" M 242.96901933654462 15.40598066345541 L 251.97392050810916 12.911420508109188 L 255.75000000000006 11.986390293423995 L 263.45336929888964 10.32836929888964 L 269.8125 9.199009844791306 L 278.47421980967357 8.02578019032643 L 283.875 7.517909618733199 L 290.90625 7.129050185664653 L 297.9375 7.067009223594312 L 304.96875 7.356033700841749 L 307.10709972255376 7.5179002774463015 L 312.00000000000006 8.025783741608222 L 319.48849330391295 9.199006696087054 L 321.75848102031193 9.65625 L 326.06250000000006 10.663079817001233 L 333.09375 12.735171137327256 L 340.12500000000006 15.40598955771867 L 342.9876272784616 16.687499999999943 L 347.15625000000006 18.779400144105637 L 350.31477346319934 20.560226536800712 L 355.239659598995 23.718749999999943 L 361.21875 28.290974472248024 L 366.16666604587215 32.83333395412785 L 368.25 34.99789338200685 L 370.7090383077277 37.78125 L 372.7523745335829 40.31012546641705 L 375.99822864975715 44.8125 L 378.4397734631993 48.685226536800656 L 380.2206010118441 51.84374999999994 L 383.20659791452954 57.98090208547052 L 384.4912061880378 61.053706188037836 L 387.0136136720055 68.23638632799447 L 388.3369241340567 72.9375 L 389.8871687577992 79.96875 L 390.0090680979544 80.63406809795447 L 390.97421980967357 86.99999999999994 L 391.64396766124844 94.03125 L 391.7858641109727 96.47336411097257 L 391.93299988052337 101.0625 L 391.8709498788075 108.09375 L 391.7724769698727 110.52247696987263 L 391.4820997225537 115.125 L 390.62775622793225 123.4402562279322 L 389.34375 131.914711552494 L 388.3369241340567 137.22557586594337 L 386.0885794918908 147.02607949189084 L 385.23328177964004 150.28125 L 382.31250000000006 160.1751240213668 L 379.47628529039093 168.53878529039088 L 378.43977346319934 171.375 L 375.28125000000006 179.4583907839287 L 370.7090383077277 190.0097116922723 L 366.7145932026074 198.3986880473926 L 366.27510209333354 199.2829145933335 L 365.668212890625 199.44506835937497 L 365.61328125 199.39013671875 L 365.55834960937506 199.44506835937497 L 364.29492187500006 199.39013671875 L 363.031494140625 199.44506835937497 L 362.9765625 199.39013671875 L 362.921630859375 199.44506835937497 L 361.658203125 199.39013671875 L 360.394775390625 199.44506835937497 L 360.33984375000006 199.39013671875 L 360.284912109375 199.44506835937497 L 359.021484375 199.39013671875 L 357.758056640625 199.44506835937497 L 357.70312500000006 199.39013671875 L 357.64819335937506 199.44506835937497 L 356.384765625 199.39013671875 L 355.12133789062506 199.44506835937497 L 355.06640625 199.39013671875 L 355.011474609375 199.44506835937497 L 353.74804687500006 199.39013671875 L 352.484619140625 199.44506835937497 L 352.4296875 199.39013671875 L 352.37475585937506 199.44506835937497 L 351.11132812500006 199.39013671875 L 349.847900390625 199.44506835937497 L 349.79296875 199.39013671875 L 349.73803710937506 199.44506835937497 L 348.474609375 199.39013671875 L 347.21118164062506 199.44506835937497 L 347.15625000000006 199.39013671875 L 347.101318359375 199.44506835937497 L 345.83789062500006 199.39013671875 L 344.574462890625 199.44506835937497 L 344.51953125000006 199.39013671875 L 344.46459960937506 199.44506835937497 L 343.201171875 199.39013671875 L 341.93774414062506 199.44506835937497 L 341.8828125 199.39013671875 L 341.827880859375 199.44506835937497 L 340.56445312500006 199.39013671875 L 339.30102539062506 199.44506835937497 L 339.24609375000006 199.39013671875 L 339.19116210937506 199.44506835937497 L 337.92773437500006 199.39013671875 L 336.664306640625 199.44506835937497 L 336.609375 199.39013671875 L 336.55444335937506 199.44506835937497 L 335.291015625 199.39013671875 L 334.027587890625 199.44506835937497 L 333.97265625000006 199.39013671875 L 333.917724609375 199.44506835937497 L 332.654296875 199.39013671875 L 331.390869140625 199.44506835937497 L 331.33593750000006 199.39013671875 L 331.28100585937506 199.44506835937497 L 330.017578125 199.39013671875 L 328.75415039062506 199.44506835937497 L 328.69921875 199.39013671875 L 328.644287109375 199.44506835937497 L 327.380859375 199.39013671875 L 326.117431640625 199.44506835937497 L 326.0625 199.39013671875 L 326.00756835937506 199.44506835937497 L 324.74414062500006 199.39013671875 L 323.480712890625 199.44506835937497 L 323.42578125 199.39013671875 L 323.370849609375 199.44506835937497 L 322.107421875 199.39013671875 L 320.843994140625 199.44506835937497 L 320.7890625 199.39013671875 L 320.734130859375 199.44506835937497 L 319.470703125 199.39013671875 L 318.207275390625 199.44506835937497 L 318.15234375 199.39013671875 L 318.097412109375 199.44506835937497 L 316.833984375 199.39013671875 L 315.57055664062506 199.44506835937497 L 315.515625 199.39013671875 L 315.460693359375 199.44506835937497 L 314.19726562500006 199.39013671875 L 312.933837890625 199.44506835937497 L 312.87890625 199.39013671875 L 312.82397460937506 199.44506835937497 L 311.560546875 199.39013671875 L 310.297119140625 199.44506835937497 L 310.2421875 199.39013671875 L 310.187255859375 199.44506835937497 L 308.923828125 199.39013671875 L 307.660400390625 199.44506835937497 L 307.60546875000006 199.39013671875 L 307.550537109375 199.44506835937497 L 306.287109375 199.39013671875 L 305.023681640625 199.44506835937497 L 304.96875 199.39013671875 L 304.91381835937506 199.44506835937497 L 303.65039062500006 199.39013671875 L 302.38696289062506 199.44506835937497 L 302.33203125 199.39013671875 L 302.277099609375 199.44506835937497 L 301.01367187500006 199.39013671875 L 299.750244140625 199.44506835937497 L 299.6953125 199.39013671875 L 299.64038085937506 199.44506835937497 L 298.376953125 199.39013671875 L 297.113525390625 199.44506835937497 L 297.05859375 199.39013671875 L 297.003662109375 199.44506835937497 L 295.740234375 199.39013671875 L 294.476806640625 199.44506835937497 L 294.42187500000006 199.39013671875 L 294.366943359375 199.44506835937497 L 293.103515625 199.39013671875 L 291.840087890625 199.44506835937497 L 291.78515625 199.39013671875 L 291.730224609375 199.44506835937497 L 290.466796875 199.39013671875 L 289.20336914062506 199.44506835937497 L 289.1484375 199.39013671875 L 289.093505859375 199.44506835937497 L 287.83007812500006 199.39013671875 L 286.566650390625 199.44506835937497 L 286.51171875000006 199.39013671875 L 286.45678710937506 199.44506835937497 L 285.193359375 199.39013671875 L 283.929931640625 199.44506835937497 L 283.875 199.39013671875 L 283.820068359375 199.44506835937497 L 282.556640625 199.39013671875 L 281.293212890625 199.44506835937497 L 281.23828125000006 199.39013671875 L 281.183349609375 199.44506835937497 L 279.919921875 199.39013671875 L 278.656494140625 199.44506835937497 L 278.6015625 199.39013671875 L 278.54663085937506 199.44506835937497 L 277.283203125 199.39013671875 L 276.01977539062506 199.44506835937497 L 275.96484375 199.39013671875 L 275.909912109375 199.44506835937497 L 274.64648437500006 199.39013671875 L 273.383056640625 199.44506835937497 L 273.32812500000006 199.39013671875 L 273.27319335937506 199.44506835937497 L 272.009765625 199.39013671875 L 270.746337890625 199.44506835937497 L 270.69140625 199.39013671875 L 270.636474609375 199.44506835937497 L 269.373046875 199.39013671875 L 268.10961914062506 199.44506835937497 L 267.999755859375 199.44506835937497 L 266.736328125 199.39013671875 L 265.472900390625 199.44506835937497 L 265.41796875 199.39013671875 L 265.36303710937506 199.44506835937497 L 264.099609375 199.39013671875 L 262.83618164062506 199.44506835937497 L 262.78125 199.39013671875 L 262.726318359375 199.44506835937497 L 261.46289062500006 199.39013671875 L 260.199462890625 199.44506835937497 L 260.14453125 199.39013671875 L 260.08959960937506 199.44506835937497 L 258.826171875 199.39013671875 L 257.562744140625 199.44506835937497 L 257.5078125 199.39013671875 L 257.452880859375 199.44506835937497 L 256.189453125 199.39013671875 L 254.926025390625 199.44506835937497 L 254.87109375000003 199.39013671875 L 254.81616210937503 199.44506835937497 L 253.552734375 199.39013671875 L 252.289306640625 199.44506835937497 L 252.23437500000003 199.39013671875 L 252.17944335937506 199.44506835937497 L 250.916015625 199.39013671875 L 249.65258789062503 199.44506835937497 L 249.59765625 199.39013671875 L 249.542724609375 199.44506835937497 L 248.27929687500003 199.39013671875 L 247.01586914062503 199.44506835937497 L 246.90600585937503 199.44506835937497 L 245.64257812500003 199.39013671875 L 244.379150390625 199.44506835937497 L 244.32421875 199.39013671875 L 244.26928710937503 199.44506835937497 L 243.005859375 199.39013671875 L 241.74243164062503 199.44506835937497 L 241.632568359375 199.44506835937497 L 240.369140625 199.39013671875 L 239.10571289062503 199.44506835937497 L 238.995849609375 199.44506835937497 L 237.732421875 199.39013671875 L 236.46899414062503 199.44506835937497 L 236.35913085937503 199.44506835937497 L 235.09570312500003 199.39013671875 L 233.83227539062503 199.44506835937497 L 233.72241210937503 199.44506835937497 L 232.45898437500003 199.39013671875 L 231.195556640625 199.44506835937497 L 231.08569335937503 199.44506835937497 L 229.822265625 199.39013671875 L 228.558837890625 199.44506835937497 L 228.448974609375 199.44506835937497 L 227.185546875 199.39013671875 L 225.92211914062503 199.44506835937497 L 225.812255859375 199.44506835937497 L 224.548828125 199.39013671875 L 223.28540039062503 199.44506835937497 L 223.175537109375 199.44506835937497 L 221.91210937500003 199.39013671875 L 220.64868164062503 199.44506835937497 L 220.53881835937503 199.44506835937497 L 219.27539062500003 199.39013671875 L 218.011962890625 199.44506835937497 L 217.90209960937503 199.44506835937497 L 216.638671875 199.39013671875 L 215.375244140625 199.44506835937497 L 215.265380859375 199.44506835937497 L 214.001953125 199.39013671875 L 212.73852539062503 199.44506835937497 L 212.628662109375 199.44506835937497 L 211.36523437500003 199.39013671875 L 210.10180664062503 199.44506835937497 L 210.046875 199.39013671875 L 209.99194335937503 199.44506835937497 L 208.72851562500003 199.39013671875 L 207.46508789062503 199.44506835937497 L 207.41015625 199.39013671875 L 207.35522460937503 199.44506835937497 L 206.09179687500003 199.39013671875 L 204.828369140625 199.44506835937497 L 204.77343750000003 199.39013671875 L 204.71850585937503 199.44506835937497 L 203.455078125 199.39013671875 L 202.191650390625 199.44506835937497 L 202.081787109375 199.44506835937497 L 200.818359375 199.39013671875 L 199.55493164062503 199.44506835937497 L 199.55493164062503 32.947265625 L 199.73643877677168 32.71524922702474 L 206.53125000000003 29.428982906457406 L 213.56250000000003 26.247625800300966 L 221.31072864975704 23.00177135024296 L 230.46121470960912 19.52371470960901 L 238.82487272153838 16.687499999999943 L 242.96901933654462 15.40598066345541" fill-opacity="0.4"/><g><path fill="none" stroke="#388c46" class="dcg-svg-curve" paint-order="fill stroke markers" d=" M 242.96901933654462 15.40598066345541 L 242.96901933654462 15.40598066345541 L 251.97392050810916 12.911420508109188 L 255.75000000000006 11.986390293423995 L 263.45336929888964 10.32836929888964 L 269.8125 9.199009844791306 L 278.47421980967357 8.02578019032643 L 283.875 7.517909618733199 L 290.90625 7.129050185664653 L 297.9375 7.067009223594312 L 304.96875 7.356033700841749 L 307.10709972255376 7.5179002774463015 L 312.00000000000006 8.025783741608222 L 319.48849330391295 9.199006696087054 L 321.75848102031193 9.65625 L 326.06250000000006 10.663079817001233 L 333.09375 12.735171137327256 L 340.12500000000006 15.40598955771867 L 342.9876272784616 16.687499999999943 L 347.15625000000006 18.779400144105637 L 350.31477346319934 20.560226536800712 L 355.239659598995 23.718749999999943 L 361.21875 28.290974472248024 L 366.16666604587215 32.83333395412785 L 368.25 34.99789338200685 L 370.7090383077277 37.78125 L 372.7523745335829 40.31012546641705 L 375.99822864975715 44.8125 L 378.4397734631993 48.685226536800656 L 380.2206010118441 51.84374999999994 L 383.20659791452954 57.98090208547052 L 384.4912061880378 61.053706188037836 L 387.0136136720055 68.23638632799447 L 388.3369241340567 72.9375 L 389.8871687577992 79.96875 L 390.0090680979544 80.63406809795447 L 390.97421980967357 86.99999999999994 L 391.64396766124844 94.03125 L 391.7858641109727 96.47336411097257 L 391.93299988052337 101.0625 L 391.8709498788075 108.09375 L 391.7724769698727 110.52247696987263 L 391.4820997225537 115.125 L 390.62775622793225 123.4402562279322 L 389.34375 131.914711552494 L 388.3369241340567 137.22557586594337 L 386.0885794918908 147.02607949189084 L 385.23328177964004 150.28125 L 382.31250000000006 160.1751240213668 L 379.47628529039093 168.53878529039088 L 378.43977346319934 171.375 L 375.28125000000006 179.4583907839287 L 370.7090383077277 190.0097116922723 L 366.7145932026074 198.3986880473926 L 366.27510209333354 199.2829145933335" stroke-linecap="round" stroke-linejoin="round" stroke-miterlimit="10" stroke-width="5" stroke-dasharray=""/></g><g><path fill="none" stroke="#388c46" class="dcg-svg-curve" paint-order="fill stroke markers" d=" M 199.7170854066665 32.724897906666456 L 199.7170854066665 32.724897906666456 L 206.53125000000003 29.428982906457406 L 213.56250000000003 26.247625800300966 L 221.31072864975704 23.00177135024296 L 230.46121470960912 19.52371470960901 L 238.82487272153838 16.687499999999943 L 242.96901933654462 15.40598066345541" stroke-linecap="round" stroke-linejoin="round" stroke-miterlimit="10" stroke-width="5" stroke-dasharray=""/></g></g></g><g id="labels-92473517"/></g></svg>
